# xmcd
# 
# Track frame offsets:
#   150
#   15870
#   26548
#   38060
#   48982
#   61673
#   75896
#   89994
#   103605
#   117194
#   130405
#   144032
#   159886
#   173305
#   188254
# 
# Disc length: 2712 seconds
# 
# Revision: 0
# Processed by: cddbd v1.5.2PL0 Copyright (c) Steve Scherf et al.
# Submitted via: VOLTOCDX V1.0.24 
# 
DISCID=9d0a960f
DTITLE=Various Artist - CB-9325
DYEAR=2010
DGENRE=Karaoke
TTITLE0=Some Memories Just Won't Die - Marty Robbins
TTITLE1=Stairway Of Love - Marty Robbins
TTITLE2=She Was Only 17 - Marty Robbins
TTITLE3=Knee Deep In The Blues - Marty Robbins
TTITLE4=The girl With Gardenias - Marty Robbins
TTITLE5=The Cowboy In The Continental Suit - Marty Robbins
TTITLE6=Return To Me - Marty Robbins
TTITLE7=It's a Sin - Marty Robbins
TTITLE8=I Couldn't Keep From Crying - Marty Robbins
TTITLE9=Among My Souvenirs - Marty Robbins
TTITLE10=Joli Girl - Marty Robbins
TTITLE11=Padre - Marty Robbins
TTITLE12=It's Your World - Marty Robbins
TTITLE13=Walking Piece Of Heaven - Marty Robbins
TTITLE14=Hark! The Herald Angels Sing - Marty Robbins
EXTD=
EXTT0=
EXTT1=
EXTT2=
EXTT3=
EXTT4=
EXTT5=
EXTT6=
EXTT7=
EXTT8=
EXTT9=
EXTT10=
EXTT11=
EXTT12=
EXTT13=
EXTT14=
PLAYORDER=
